# xmcd
# 
# Track frame offsets:
#     182
#     25050
#     49392
#     66472
#     95507
#     125825
#     143847
#     162177
#     191332
#     210577
#     233717
#     264440
# 
# Disc length: 3759
# 
# Revision: 7
# Processed by: cddbd v1.5.2PL0 Copyright (c) Steve Scherf et al.
# Submitted via: fre:ac v1.0.27
# 
DISCID=ac0ead0c
DTITLE=Metallica - Metallica
DYEAR=1991
DGENRE=Heavy Metal
TTITLE0=Vicarious
TTITLE1=Jambi
TTITLE2=Wings for Marie (Pt 1)
TTITLE3=10,000 Days (Wings Pt 2)
TTITLE4=The Pot
TTITLE5=Lipan Conjuring
TTITLE6=Lost Keys (Blame Hofmann)
TTITLE7=Rosetta Stoned
TTITLE8=Intension
TTITLE9=Right In Two
TTITLE10=Viginti Tres
TTITLE11=The Struggle Within
EXTD=
EXTT0=
EXTT1=
EXTT2=
EXTT3=
EXTT4=
EXTT5=
EXTT6=
EXTT7=
EXTT8=
EXTT9=
EXTT10=
EXTT11=
PLAYORDER=
